<mxfile host="Electron" modified="2024-03-26T11:34:16.875Z" agent="Mozilla/5.0 (Windows NT 10.0; Win64; x64) AppleWebKit/537.36 (KHTML, like Gecko) draw.io/24.1.0 Chrome/120.0.6099.109 Electron/28.1.0 Safari/537.36" etag="8L5lyR3neA_Q1UxVbzFC" version="24.1.0" type="device">
  <diagram name="Page-1" id="2YBvvXClWsGukQMizWep">
    <mxGraphModel dx="1105" dy="654" grid="1" gridSize="10" guides="1" tooltips="1" connect="1" arrows="1" fold="1" page="1" pageScale="1" pageWidth="850" pageHeight="1100" math="0" shadow="0">
      <root>
        <mxCell id="0" />
        <mxCell id="1" parent="0" />
        <mxCell id="eFoGn435We_nCQMnip67-62" value="" style="rounded=0;whiteSpace=wrap;html=1;fillColor=none;" vertex="1" parent="1">
          <mxGeometry x="17.5" y="600" width="690" height="140" as="geometry" />
        </mxCell>
        <mxCell id="eFoGn435We_nCQMnip67-8" value="" style="rounded=0;whiteSpace=wrap;html=1;fillColor=none;" vertex="1" parent="1">
          <mxGeometry x="20" y="310" width="690" height="140" as="geometry" />
        </mxCell>
        <mxCell id="aM9ryv3xv72pqoxQDRHE-1" value="Login Component" style="shape=umlLifeline;perimeter=lifelinePerimeter;whiteSpace=wrap;html=1;container=0;dropTarget=0;collapsible=0;recursiveResize=0;outlineConnect=0;portConstraint=eastwest;newEdgeStyle={&quot;edgeStyle&quot;:&quot;elbowEdgeStyle&quot;,&quot;elbow&quot;:&quot;vertical&quot;,&quot;curved&quot;:0,&quot;rounded&quot;:0};" parent="1" vertex="1">
          <mxGeometry x="128" y="86" width="100" height="910" as="geometry" />
        </mxCell>
        <mxCell id="aM9ryv3xv72pqoxQDRHE-2" value="" style="html=1;points=[];perimeter=orthogonalPerimeter;outlineConnect=0;targetShapes=umlLifeline;portConstraint=eastwest;newEdgeStyle={&quot;edgeStyle&quot;:&quot;elbowEdgeStyle&quot;,&quot;elbow&quot;:&quot;vertical&quot;,&quot;curved&quot;:0,&quot;rounded&quot;:0};" parent="aM9ryv3xv72pqoxQDRHE-1" vertex="1">
          <mxGeometry x="45" y="70" width="10" height="730" as="geometry" />
        </mxCell>
        <mxCell id="aM9ryv3xv72pqoxQDRHE-3" value="Seite Ã–ffnen" style="html=1;verticalAlign=bottom;startArrow=oval;endArrow=block;startSize=8;edgeStyle=elbowEdgeStyle;elbow=vertical;curved=0;rounded=0;" parent="aM9ryv3xv72pqoxQDRHE-1" target="aM9ryv3xv72pqoxQDRHE-2" edge="1">
          <mxGeometry relative="1" as="geometry">
            <mxPoint x="-15" y="70" as="sourcePoint" />
          </mxGeometry>
        </mxCell>
        <mxCell id="eFoGn435We_nCQMnip67-67" value="" style="rounded=0;whiteSpace=wrap;html=1;fillColor=none;" vertex="1" parent="aM9ryv3xv72pqoxQDRHE-1">
          <mxGeometry x="-110.5" y="655" width="690" height="140" as="geometry" />
        </mxCell>
        <mxCell id="eFoGn435We_nCQMnip67-68" value="Login Daten falsch&lt;div&gt;oder User gibt es nicht&lt;/div&gt;" style="text;html=1;align=center;verticalAlign=middle;resizable=0;points=[];autosize=1;strokeColor=none;fillColor=none;" vertex="1" parent="aM9ryv3xv72pqoxQDRHE-1">
          <mxGeometry x="-113.5" y="655" width="140" height="40" as="geometry" />
        </mxCell>
        <mxCell id="eFoGn435We_nCQMnip67-70" value="" style="endArrow=classic;html=1;rounded=0;" edge="1" parent="aM9ryv3xv72pqoxQDRHE-1">
          <mxGeometry width="50" height="50" relative="1" as="geometry">
            <mxPoint x="361.5" y="675" as="sourcePoint" />
            <mxPoint x="56.5" y="674.5" as="targetPoint" />
          </mxGeometry>
        </mxCell>
        <mxCell id="eFoGn435We_nCQMnip67-71" value="&lt;div style=&quot;text-align: center;&quot;&gt;&lt;span style=&quot;font-size: 11px; text-wrap: nowrap; background-color: rgb(24, 20, 29);&quot;&gt;Error Antwort&lt;/span&gt;&lt;/div&gt;" style="text;whiteSpace=wrap;html=1;" vertex="1" parent="aM9ryv3xv72pqoxQDRHE-1">
          <mxGeometry x="171.5" y="650" width="70" height="40" as="geometry" />
        </mxCell>
        <mxCell id="eFoGn435We_nCQMnip67-73" value="&lt;div style=&quot;text-align: center;&quot;&gt;displayMessage(Error Abtwort)&lt;/div&gt;" style="text;whiteSpace=wrap;html=1;" vertex="1" parent="aM9ryv3xv72pqoxQDRHE-1">
          <mxGeometry x="231.5" y="705" width="190" height="40" as="geometry" />
        </mxCell>
        <mxCell id="eFoGn435We_nCQMnip67-74" value="" style="html=1;verticalAlign=bottom;endArrow=block;edgeStyle=elbowEdgeStyle;elbow=vertical;curved=0;rounded=0;exitX=0.246;exitY=0.571;exitDx=0;exitDy=0;exitPerimeter=0;" edge="1" parent="aM9ryv3xv72pqoxQDRHE-1">
          <mxGeometry relative="1" as="geometry">
            <mxPoint x="206.5" y="764.62" as="sourcePoint" />
            <Array as="points">
              <mxPoint x="526.5" y="764.62" />
            </Array>
            <mxPoint x="56.5" y="764.62" as="targetPoint" />
          </mxGeometry>
        </mxCell>
        <mxCell id="eFoGn435We_nCQMnip67-75" value="&lt;div style=&quot;text-align: center;&quot;&gt;Anzeige Error&lt;/div&gt;" style="text;whiteSpace=wrap;html=1;" vertex="1" parent="aM9ryv3xv72pqoxQDRHE-1">
          <mxGeometry x="221.5" y="745" width="190" height="40" as="geometry" />
        </mxCell>
        <mxCell id="aM9ryv3xv72pqoxQDRHE-5" value="Validator" style="shape=umlLifeline;perimeter=lifelinePerimeter;whiteSpace=wrap;html=1;container=0;dropTarget=0;collapsible=0;recursiveResize=0;outlineConnect=0;portConstraint=eastwest;newEdgeStyle={&quot;edgeStyle&quot;:&quot;elbowEdgeStyle&quot;,&quot;elbow&quot;:&quot;vertical&quot;,&quot;curved&quot;:0,&quot;rounded&quot;:0};" parent="1" vertex="1">
          <mxGeometry x="310" y="90" width="100" height="890" as="geometry" />
        </mxCell>
        <mxCell id="aM9ryv3xv72pqoxQDRHE-6" value="" style="html=1;points=[];perimeter=orthogonalPerimeter;outlineConnect=0;targetShapes=umlLifeline;portConstraint=eastwest;newEdgeStyle={&quot;edgeStyle&quot;:&quot;elbowEdgeStyle&quot;,&quot;elbow&quot;:&quot;vertical&quot;,&quot;curved&quot;:0,&quot;rounded&quot;:0};" parent="aM9ryv3xv72pqoxQDRHE-5" vertex="1">
          <mxGeometry x="45" y="130" width="10" height="30" as="geometry" />
        </mxCell>
        <mxCell id="aM9ryv3xv72pqoxQDRHE-7" value="validate" style="html=1;verticalAlign=bottom;endArrow=block;edgeStyle=elbowEdgeStyle;elbow=vertical;curved=0;rounded=0;" parent="1" source="aM9ryv3xv72pqoxQDRHE-2" target="aM9ryv3xv72pqoxQDRHE-6" edge="1">
          <mxGeometry y="10" relative="1" as="geometry">
            <mxPoint x="285" y="180" as="sourcePoint" />
            <Array as="points">
              <mxPoint x="260" y="220" />
              <mxPoint x="270" y="170" />
            </Array>
            <mxPoint as="offset" />
          </mxGeometry>
        </mxCell>
        <mxCell id="aM9ryv3xv72pqoxQDRHE-9" value="" style="html=1;verticalAlign=bottom;endArrow=block;edgeStyle=elbowEdgeStyle;elbow=vertical;curved=0;rounded=0;" parent="1" edge="1">
          <mxGeometry relative="1" as="geometry">
            <mxPoint x="355" y="250" as="sourcePoint" />
            <Array as="points">
              <mxPoint x="280" y="250" />
            </Array>
            <mxPoint x="190" y="250" as="targetPoint" />
          </mxGeometry>
        </mxCell>
        <mxCell id="eFoGn435We_nCQMnip67-1" value="Daten Eingeben" style="html=1;verticalAlign=bottom;startArrow=oval;endArrow=block;startSize=8;edgeStyle=elbowEdgeStyle;elbow=vertical;curved=0;rounded=0;" edge="1" parent="1">
          <mxGeometry relative="1" as="geometry">
            <mxPoint x="110" y="210" as="sourcePoint" />
            <mxPoint x="175" y="210" as="targetPoint" />
          </mxGeometry>
        </mxCell>
        <mxCell id="eFoGn435We_nCQMnip67-2" value="Abschicken" style="html=1;verticalAlign=bottom;startArrow=oval;endArrow=block;startSize=8;edgeStyle=elbowEdgeStyle;elbow=vertical;curved=0;rounded=0;" edge="1" parent="1">
          <mxGeometry relative="1" as="geometry">
            <mxPoint x="110" y="260" as="sourcePoint" />
            <mxPoint x="175" y="260" as="targetPoint" />
          </mxGeometry>
        </mxCell>
        <mxCell id="eFoGn435We_nCQMnip67-3" value="&amp;nbsp;Backend Routen" style="shape=umlLifeline;perimeter=lifelinePerimeter;whiteSpace=wrap;html=1;container=0;dropTarget=0;collapsible=0;recursiveResize=0;outlineConnect=0;portConstraint=eastwest;newEdgeStyle={&quot;edgeStyle&quot;:&quot;elbowEdgeStyle&quot;,&quot;elbow&quot;:&quot;vertical&quot;,&quot;curved&quot;:0,&quot;rounded&quot;:0};" vertex="1" parent="1">
          <mxGeometry x="450" y="90" width="100" height="900" as="geometry" />
        </mxCell>
        <mxCell id="eFoGn435We_nCQMnip67-4" value="" style="html=1;points=[];perimeter=orthogonalPerimeter;outlineConnect=0;targetShapes=umlLifeline;portConstraint=eastwest;newEdgeStyle={&quot;edgeStyle&quot;:&quot;elbowEdgeStyle&quot;,&quot;elbow&quot;:&quot;vertical&quot;,&quot;curved&quot;:0,&quot;rounded&quot;:0};" vertex="1" parent="eFoGn435We_nCQMnip67-3">
          <mxGeometry x="45" y="130" width="10" height="570" as="geometry" />
        </mxCell>
        <mxCell id="eFoGn435We_nCQMnip67-5" value="" style="html=1;verticalAlign=bottom;endArrow=block;edgeStyle=elbowEdgeStyle;elbow=vertical;curved=0;rounded=0;" edge="1" parent="1" source="aM9ryv3xv72pqoxQDRHE-2">
          <mxGeometry relative="1" as="geometry">
            <mxPoint x="190" y="280" as="sourcePoint" />
            <Array as="points">
              <mxPoint x="290" y="280" />
            </Array>
            <mxPoint x="490" y="280" as="targetPoint" />
          </mxGeometry>
        </mxCell>
        <mxCell id="eFoGn435We_nCQMnip67-7" value="&lt;span style=&quot;color: rgb(240, 240, 240); font-family: Helvetica; font-size: 11px; font-style: normal; font-variant-ligatures: normal; font-variant-caps: normal; font-weight: 400; letter-spacing: normal; orphans: 2; text-align: center; text-indent: 0px; text-transform: none; widows: 2; word-spacing: 0px; -webkit-text-stroke-width: 0px; white-space: nowrap; background-color: rgb(24, 20, 29); text-decoration-thickness: initial; text-decoration-style: initial; text-decoration-color: initial; display: inline !important; float: none;&quot;&gt;fetch /login&lt;/span&gt;" style="text;whiteSpace=wrap;html=1;" vertex="1" parent="1">
          <mxGeometry x="310" y="260" width="70" height="40" as="geometry" />
        </mxCell>
        <mxCell id="eFoGn435We_nCQMnip67-9" value="&lt;div style=&quot;text-align: center;&quot;&gt;&lt;span style=&quot;font-size: 11px; text-wrap: nowrap; background-color: rgb(24, 20, 29);&quot;&gt;Fehlende oder&lt;/span&gt;&lt;/div&gt;&lt;div style=&quot;text-align: center;&quot;&gt;&lt;span style=&quot;font-size: 11px; text-wrap: nowrap; background-color: rgb(24, 20, 29);&quot;&gt;&amp;nbsp;inkorrekte Daten&lt;/span&gt;&lt;/div&gt;" style="text;whiteSpace=wrap;html=1;" vertex="1" parent="1">
          <mxGeometry x="30" y="310" width="70" height="40" as="geometry" />
        </mxCell>
        <mxCell id="eFoGn435We_nCQMnip67-19" value="" style="endArrow=classic;html=1;rounded=0;" edge="1" parent="1">
          <mxGeometry width="50" height="50" relative="1" as="geometry">
            <mxPoint x="490" y="330" as="sourcePoint" />
            <mxPoint x="185" y="329.5" as="targetPoint" />
          </mxGeometry>
        </mxCell>
        <mxCell id="eFoGn435We_nCQMnip67-20" value="&lt;div style=&quot;text-align: center;&quot;&gt;&lt;span style=&quot;font-size: 11px; text-wrap: nowrap; background-color: rgb(24, 20, 29);&quot;&gt;Error Antwort&lt;/span&gt;&lt;/div&gt;" style="text;whiteSpace=wrap;html=1;" vertex="1" parent="1">
          <mxGeometry x="300" y="305" width="70" height="40" as="geometry" />
        </mxCell>
        <mxCell id="eFoGn435We_nCQMnip67-21" value="" style="html=1;verticalAlign=bottom;endArrow=block;edgeStyle=elbowEdgeStyle;elbow=vertical;curved=0;rounded=0;exitX=0.246;exitY=0.571;exitDx=0;exitDy=0;exitPerimeter=0;" edge="1" parent="1" source="eFoGn435We_nCQMnip67-8" target="eFoGn435We_nCQMnip67-11">
          <mxGeometry relative="1" as="geometry">
            <mxPoint x="260" y="390" as="sourcePoint" />
            <Array as="points">
              <mxPoint x="365" y="390" />
            </Array>
            <mxPoint x="565" y="390" as="targetPoint" />
          </mxGeometry>
        </mxCell>
        <mxCell id="eFoGn435We_nCQMnip67-22" value="&lt;div style=&quot;text-align: center;&quot;&gt;displayMessage(Error Abtwort)&lt;/div&gt;" style="text;whiteSpace=wrap;html=1;" vertex="1" parent="1">
          <mxGeometry x="360" y="360" width="190" height="40" as="geometry" />
        </mxCell>
        <mxCell id="eFoGn435We_nCQMnip67-24" value="" style="html=1;verticalAlign=bottom;endArrow=block;edgeStyle=elbowEdgeStyle;elbow=vertical;curved=0;rounded=0;exitX=0.246;exitY=0.571;exitDx=0;exitDy=0;exitPerimeter=0;" edge="1" parent="1">
          <mxGeometry relative="1" as="geometry">
            <mxPoint x="330" y="420" as="sourcePoint" />
            <Array as="points">
              <mxPoint x="650" y="420" />
            </Array>
            <mxPoint x="180" y="420" as="targetPoint" />
          </mxGeometry>
        </mxCell>
        <mxCell id="eFoGn435We_nCQMnip67-25" value="&lt;div style=&quot;text-align: center;&quot;&gt;Anzeige Error&lt;/div&gt;" style="text;whiteSpace=wrap;html=1;" vertex="1" parent="1">
          <mxGeometry x="350" y="400" width="190" height="40" as="geometry" />
        </mxCell>
        <mxCell id="eFoGn435We_nCQMnip67-30" value="" style="html=1;points=[];perimeter=orthogonalPerimeter;outlineConnect=0;targetShapes=umlLifeline;portConstraint=eastwest;newEdgeStyle={&quot;edgeStyle&quot;:&quot;elbowEdgeStyle&quot;,&quot;elbow&quot;:&quot;vertical&quot;,&quot;curved&quot;:0,&quot;rounded&quot;:0};" vertex="1" parent="1">
          <mxGeometry x="490" y="480" width="10" height="40" as="geometry" />
        </mxCell>
        <mxCell id="eFoGn435We_nCQMnip67-31" value="" style="endArrow=classic;html=1;rounded=0;" edge="1" parent="1" source="eFoGn435We_nCQMnip67-3" target="eFoGn435We_nCQMnip67-30">
          <mxGeometry width="50" height="50" relative="1" as="geometry">
            <mxPoint x="430" y="430" as="sourcePoint" />
            <mxPoint x="480" y="380" as="targetPoint" />
            <Array as="points">
              <mxPoint x="470" y="470" />
              <mxPoint x="470" y="480" />
            </Array>
          </mxGeometry>
        </mxCell>
        <mxCell id="eFoGn435We_nCQMnip67-32" value="&lt;div style=&quot;text-align: center;&quot;&gt;Hash Passwort&lt;/div&gt;" style="text;whiteSpace=wrap;html=1;" vertex="1" parent="1">
          <mxGeometry x="380" y="460" width="90" height="30" as="geometry" />
        </mxCell>
        <mxCell id="eFoGn435We_nCQMnip67-34" value="" style="endArrow=classic;html=1;rounded=0;" edge="1" parent="1" target="eFoGn435We_nCQMnip67-3">
          <mxGeometry width="50" height="50" relative="1" as="geometry">
            <mxPoint x="490" y="520" as="sourcePoint" />
            <mxPoint x="480" y="530" as="targetPoint" />
            <Array as="points">
              <mxPoint x="470" y="520" />
              <mxPoint x="470" y="530" />
            </Array>
          </mxGeometry>
        </mxCell>
        <mxCell id="eFoGn435We_nCQMnip67-35" value="User Repository" style="shape=umlLifeline;perimeter=lifelinePerimeter;whiteSpace=wrap;html=1;container=0;dropTarget=0;collapsible=0;recursiveResize=0;outlineConnect=0;portConstraint=eastwest;newEdgeStyle={&quot;edgeStyle&quot;:&quot;elbowEdgeStyle&quot;,&quot;elbow&quot;:&quot;vertical&quot;,&quot;curved&quot;:0,&quot;rounded&quot;:0};" vertex="1" parent="1">
          <mxGeometry x="740" y="90" width="100" height="860" as="geometry" />
        </mxCell>
        <mxCell id="eFoGn435We_nCQMnip67-36" value="" style="html=1;points=[];perimeter=orthogonalPerimeter;outlineConnect=0;targetShapes=umlLifeline;portConstraint=eastwest;newEdgeStyle={&quot;edgeStyle&quot;:&quot;elbowEdgeStyle&quot;,&quot;elbow&quot;:&quot;vertical&quot;,&quot;curved&quot;:0,&quot;rounded&quot;:0};" vertex="1" parent="eFoGn435We_nCQMnip67-35">
          <mxGeometry x="45" y="460" width="10" height="40" as="geometry" />
        </mxCell>
        <mxCell id="eFoGn435We_nCQMnip67-37" value="" style="endArrow=classic;html=1;rounded=0;" edge="1" parent="1" source="eFoGn435We_nCQMnip67-3" target="eFoGn435We_nCQMnip67-35">
          <mxGeometry width="50" height="50" relative="1" as="geometry">
            <mxPoint x="590" y="470" as="sourcePoint" />
            <mxPoint x="640" y="420" as="targetPoint" />
            <Array as="points">
              <mxPoint x="590" y="550" />
            </Array>
          </mxGeometry>
        </mxCell>
        <mxCell id="eFoGn435We_nCQMnip67-38" value="get_user_by_email(email)" style="text;html=1;align=center;verticalAlign=middle;resizable=0;points=[];autosize=1;strokeColor=none;fillColor=none;" vertex="1" parent="1">
          <mxGeometry x="570" y="528" width="160" height="30" as="geometry" />
        </mxCell>
        <mxCell id="eFoGn435We_nCQMnip67-40" value="" style="endArrow=classic;html=1;rounded=0;" edge="1" parent="1">
          <mxGeometry width="50" height="50" relative="1" as="geometry">
            <mxPoint x="785.55" y="590" as="sourcePoint" />
            <mxPoint x="499.9973684210527" y="590" as="targetPoint" />
          </mxGeometry>
        </mxCell>
        <mxCell id="eFoGn435We_nCQMnip67-41" value="user_data" style="text;html=1;align=center;verticalAlign=middle;resizable=0;points=[];autosize=1;strokeColor=none;fillColor=none;" vertex="1" parent="1">
          <mxGeometry x="590" y="568" width="80" height="30" as="geometry" />
        </mxCell>
        <mxCell id="eFoGn435We_nCQMnip67-42" value="" style="endArrow=classic;html=1;rounded=0;" edge="1" parent="1">
          <mxGeometry width="50" height="50" relative="1" as="geometry">
            <mxPoint x="497.49999999999994" y="649" as="sourcePoint" />
            <mxPoint x="176.75000000000023" y="648.9999999999998" as="targetPoint" />
          </mxGeometry>
        </mxCell>
        <mxCell id="eFoGn435We_nCQMnip67-43" value="Acces Token, UserID, UserRole" style="text;html=1;align=center;verticalAlign=middle;resizable=0;points=[];autosize=1;strokeColor=none;fillColor=none;" vertex="1" parent="1">
          <mxGeometry x="207.5" y="627" width="190" height="30" as="geometry" />
        </mxCell>
        <mxCell id="eFoGn435We_nCQMnip67-46" value="" style="endArrow=classic;html=1;rounded=0;" edge="1" parent="1">
          <mxGeometry width="50" height="50" relative="1" as="geometry">
            <mxPoint x="170" y="677" as="sourcePoint" />
            <mxPoint x="40" y="677" as="targetPoint" />
          </mxGeometry>
        </mxCell>
        <mxCell id="eFoGn435We_nCQMnip67-47" value="Leite Weiter auf Homepage" style="text;html=1;align=center;verticalAlign=middle;resizable=0;points=[];autosize=1;strokeColor=none;fillColor=none;" vertex="1" parent="1">
          <mxGeometry x="12.5" y="647" width="170" height="30" as="geometry" />
        </mxCell>
        <mxCell id="eFoGn435We_nCQMnip67-64" value="if user_data and (hashed_Pw == user_data[&quot;password])" style="text;html=1;align=center;verticalAlign=middle;resizable=0;points=[];autosize=1;strokeColor=none;fillColor=none;" vertex="1" parent="1">
          <mxGeometry x="15" y="568" width="320" height="30" as="geometry" />
        </mxCell>
        <mxCell id="eFoGn435We_nCQMnip67-65" value="Daten Vorhanden und&lt;div&gt;&amp;nbsp;Password korrekt&lt;/div&gt;" style="text;html=1;align=center;verticalAlign=middle;resizable=0;points=[];autosize=1;strokeColor=none;fillColor=none;" vertex="1" parent="1">
          <mxGeometry x="12.5" y="600" width="140" height="40" as="geometry" />
        </mxCell>
        <mxCell id="eFoGn435We_nCQMnip67-10" value="Feedback Componente" style="shape=umlLifeline;perimeter=lifelinePerimeter;whiteSpace=wrap;html=1;container=0;dropTarget=0;collapsible=0;recursiveResize=0;outlineConnect=0;portConstraint=eastwest;newEdgeStyle={&quot;edgeStyle&quot;:&quot;elbowEdgeStyle&quot;,&quot;elbow&quot;:&quot;vertical&quot;,&quot;curved&quot;:0,&quot;rounded&quot;:0};size=40;" vertex="1" parent="1">
          <mxGeometry x="610.5" y="90" width="100" height="880" as="geometry" />
        </mxCell>
        <mxCell id="eFoGn435We_nCQMnip67-11" value="" style="html=1;points=[];perimeter=orthogonalPerimeter;outlineConnect=0;targetShapes=umlLifeline;portConstraint=eastwest;newEdgeStyle={&quot;edgeStyle&quot;:&quot;elbowEdgeStyle&quot;,&quot;elbow&quot;:&quot;vertical&quot;,&quot;curved&quot;:0,&quot;rounded&quot;:0};" vertex="1" parent="eFoGn435We_nCQMnip67-10">
          <mxGeometry x="45" y="280" width="10" height="60" as="geometry" />
        </mxCell>
        <mxCell id="eFoGn435We_nCQMnip67-69" value="" style="html=1;points=[];perimeter=orthogonalPerimeter;outlineConnect=0;targetShapes=umlLifeline;portConstraint=eastwest;newEdgeStyle={&quot;edgeStyle&quot;:&quot;elbowEdgeStyle&quot;,&quot;elbow&quot;:&quot;vertical&quot;,&quot;curved&quot;:0,&quot;rounded&quot;:0};fillColor=default;" vertex="1" parent="eFoGn435We_nCQMnip67-10">
          <mxGeometry x="45" y="726" width="10" height="40" as="geometry" />
        </mxCell>
        <mxCell id="eFoGn435We_nCQMnip67-72" value="" style="html=1;verticalAlign=bottom;endArrow=block;edgeStyle=elbowEdgeStyle;elbow=vertical;curved=0;rounded=0;exitX=0.246;exitY=0.571;exitDx=0;exitDy=0;exitPerimeter=0;" edge="1" parent="1" source="eFoGn435We_nCQMnip67-67" target="eFoGn435We_nCQMnip67-69">
          <mxGeometry relative="1" as="geometry">
            <mxPoint x="259.5" y="821" as="sourcePoint" />
            <Array as="points">
              <mxPoint x="364.5" y="821" />
            </Array>
            <mxPoint x="564.5" y="821" as="targetPoint" />
          </mxGeometry>
        </mxCell>
        <mxCell id="eFoGn435We_nCQMnip67-86" value="hashed_Pw" style="text;html=1;align=center;verticalAlign=middle;resizable=0;points=[];autosize=1;strokeColor=none;fillColor=none;" vertex="1" parent="1">
          <mxGeometry x="385" y="508" width="90" height="30" as="geometry" />
        </mxCell>
      </root>
    </mxGraphModel>
  </diagram>
</mxfile>
